<?xml version="1.0" standalone="no"?>
<!DOCTYPE svg PUBLIC "-//W3C//DTD SVG 1.1//EN" "http://www.w3.org/Graphics/SVG/1.1/DTD/svg11.dtd">
<svg width="100%" height="100%" viewBox="0 0 844 122" version="1.1" xmlns="http://www.w3.org/2000/svg" xmlns:xlink="http://www.w3.org/1999/xlink" xml:space="preserve" style="fill-rule:evenodd;clip-rule:evenodd;stroke-linejoin:round;stroke-miterlimit:1.41421;">
    <g>
        <g>
            <g transform="matrix(1,0,0,1,0,-3)">
                <path d="M206.999,32.28L206.999,29.406C208.999,29.301 210.999,29.241 212.999,29.206L212.999,91.584C211.999,91.567 210.999,91.543 209.999,91.511L209.999,32.206C208.999,32.224 207.999,32.247 206.999,32.28Z" style="fill:black;fill-opacity:0.2;"/>
            </g>
            <g transform="matrix(1,0,0,1,0,-3)">
                <path d="M185.999,34.51L185.999,32.087C187.999,31.678 189.999,31.321 191.999,30.994L191.999,89.797C190.999,89.633 189.999,89.462 188.999,89.28L188.999,33.994C187.999,34.158 186.999,34.329 185.999,34.51Z" style="fill:black;fill-opacity:0.2;"/>
            </g>
            <g transform="matrix(1,0,0,1,0,-3)">
                <path d="M165.999,40.01L165.999,38.168C167.999,37.376 169.999,36.622 171.999,35.92L171.999,84.87C170.999,84.519 169.999,84.155 168.999,83.78L168.999,38.92C167.999,39.271 166.999,39.635 165.999,40.01Z" style="fill:black;fill-opacity:0.2;"/>
            </g>
            <g transform="matrix(1,0,0,1,0,-3)">
                <path d="M144.999,50.357L144.999,49.234C146.999,47.961 148.999,46.731 150.999,45.544L150.999,75.246C149.999,74.654 148.999,74.05 147.999,73.435L147.999,48.544C146.999,49.137 145.999,49.742 144.999,50.357Z" style="fill:black;fill-opacity:0.2;"/>
            </g>
            <g transform="matrix(1,0,0,1,0,-3)">
                <path d="M74.999,73.357L74.999,52.278C73.999,51.653 72.999,51.037 71.999,50.432L71.999,45.652C73.999,46.816 75.999,48.027 77.999,49.278L77.999,71.511C76.999,72.137 75.999,72.753 74.999,73.357Z" style="fill:black;fill-opacity:0.2;"/>
            </g>
            <g transform="matrix(1,0,0,1,0,-3)">
                <path d="M53.999,83.49L53.999,41.431C52.999,41.043 51.999,40.666 50.999,40.3L50.999,36.235C52.999,36.922 54.999,37.656 56.999,38.431L56.999,82.36C55.999,82.747 54.999,83.124 53.999,83.49Z" style="fill:black;fill-opacity:0.2;"/>
            </g>
            <g transform="matrix(1,0,0,1,0,-3)">
                <path d="M33.999,88.873L33.999,35.482C32.999,35.283 31.999,35.095 30.999,34.917L30.999,31.412C32.999,31.732 34.999,32.083 36.999,32.482L36.999,88.309C35.999,88.508 34.999,88.695 33.999,88.873Z" style="fill:black;fill-opacity:0.2;"/>
            </g>
            <g transform="matrix(1,0,0,1,0,-3)">
                <path d="M12.999,91.054L12.999,32.86C11.999,32.809 10.999,32.769 9.999,32.737L9.999,29.664C11.999,29.699 13.999,29.758 15.999,29.86L15.999,90.93C14.999,90.982 13.999,91.022 12.999,91.054Z" style="fill:black;fill-opacity:0.2;"/>
            </g>
            <g transform="matrix(1,0,0,1,0,-3.542)">
                <path d="M106.861,73.417L108.322,74.69C82.857,96.854 56.625,118.456 5.5,118.456L5.5,94.651L5.5,115.914C55.648,115.914 81.845,95.13 106.861,73.417Z" style="fill:black;fill-opacity:0.2;"/>
                <path d="M522.862,73.418L524.323,74.691C499.022,96.712 472.968,118.175 422.5,118.455L422.5,118.456L422.352,118.456C422.069,118.457 421.785,118.458 421.5,118.458L421.5,118.453C318.656,117.872 318.163,27.623 213.978,27.348C172.809,27.469 147.996,41.918 126.434,59.271C121.747,55.427 117.162,51.437 112.534,47.402C112.498,47.37 112.463,47.339 112.427,47.308C112.913,46.885 113.399,46.461 113.886,46.039C118.056,49.671 122.203,53.26 126.434,56.729C147.996,39.376 172.809,24.927 213.978,24.806C318.163,25.081 318.656,115.33 421.5,115.911L421.5,115.916C421.785,115.916 422.069,115.915 422.352,115.914L422.5,115.914L422.5,115.913C471.997,115.639 498.011,94.988 522.862,73.418Z" style="fill:black;fill-opacity:0.2;"/>
                <path d="M730.862,73.417L732.323,74.69C707.024,96.711 680.969,118.174 630.501,118.454L630.501,118.456L630.203,118.455C629.97,118.457 629.735,118.457 629.501,118.457L629.501,118.453C526.656,117.872 526.164,27.623 421.978,27.348C380.809,27.469 355.996,41.918 334.434,59.271C329.747,55.427 325.162,51.437 320.534,47.402C320.498,47.37 320.463,47.339 320.427,47.308C320.913,46.885 321.399,46.461 321.886,46.039C326.056,49.671 330.203,53.26 334.434,56.729C355.996,39.376 380.809,24.927 421.978,24.806C526.164,25.081 526.656,115.33 629.501,115.911L629.501,115.915C629.735,115.915 629.97,115.915 630.203,115.913L630.501,115.914L630.501,115.912C679.998,115.638 706.013,94.987 730.862,73.417Z" style="fill:black;fill-opacity:0.2;"/>
                <path d="M838.497,27.347C797.017,27.347 772.085,41.845 750.431,59.271C745.748,55.427 741.162,51.437 736.533,47.402C736.498,47.37 736.463,47.339 736.428,47.308C736.913,46.885 737.4,46.462 737.886,46.039C742.057,49.672 746.204,53.26 750.431,56.729C772.085,39.303 797.017,24.805 838.497,24.805L838.497,27.347Z" style="fill:black;fill-opacity:0.2;"/>
                <path d="M838.501,118.456C734.658,118.456 734.501,27.622 629.976,27.348C588.808,27.468 563.994,41.918 542.431,59.271C537.748,55.427 533.162,51.437 528.533,47.402C528.498,47.37 528.463,47.339 528.428,47.308C528.913,46.885 529.4,46.462 529.886,46.039C534.057,49.672 538.204,53.26 542.431,56.729C563.994,39.376 588.808,24.926 629.976,24.806C734.501,25.08 734.658,115.914 838.501,115.914L838.501,118.456Z" style="fill:black;fill-opacity:0.2;"/>
                <path d="M314.861,73.418L316.322,74.691C291.023,96.712 264.968,118.175 214.5,118.455L214.5,118.456L214.352,118.456C214.069,118.457 213.785,118.458 213.499,118.458L213.499,118.453C110.498,117.871 110.162,27.347 5.5,27.347L5.5,3.542L5.5,24.805C110.162,24.805 110.498,115.329 213.499,115.911L213.499,115.916C213.785,115.916 214.069,115.915 214.352,115.914L214.5,115.914L214.5,115.913C263.997,115.639 290.012,94.988 314.861,73.418Z" style="fill:black;fill-opacity:0.2;"/>
            </g>
            <g transform="matrix(1,0,0,1,0,-3)">
                <path d="M408.999,32.28L408.999,29.406C410.999,29.301 412.999,29.241 414.999,29.206L414.999,91.584C413.999,91.567 412.999,91.543 411.999,91.511L411.999,32.206C410.999,32.224 409.999,32.247 408.999,32.28Z" style="fill:black;fill-opacity:0.2;"/>
            </g>
            <g transform="matrix(1,0,0,1,0,-3)">
                <path d="M389.999,34.51L389.999,32.087C391.999,31.678 393.999,31.321 395.999,30.994L395.999,89.797C394.999,89.633 393.999,89.462 392.999,89.28L392.999,33.994C391.999,34.158 390.999,34.329 389.999,34.51Z" style="fill:black;fill-opacity:0.2;"/>
            </g>
            <g transform="matrix(1,0,0,1,0,-3)">
                <path d="M370.999,40.01L370.999,38.168C372.999,37.376 374.999,36.622 376.999,35.92L376.999,84.87C375.999,84.519 374.999,84.155 373.999,83.78L373.999,38.92C372.999,39.271 371.999,39.635 370.999,40.01Z" style="fill:black;fill-opacity:0.2;"/>
            </g>
            <g transform="matrix(1,0,0,1,0,-3)">
                <path d="M351.999,50.357L351.999,49.234C353.999,47.961 355.999,46.731 357.999,45.544L357.999,75.246C356.999,74.654 355.999,74.05 354.999,73.435L354.999,48.544C353.999,49.137 352.999,49.742 351.999,50.357Z" style="fill:black;fill-opacity:0.2;"/>
            </g>
            <g transform="matrix(1,0,0,1,0,-3)">
                <path d="M283.999,73.357L283.999,52.278C282.999,51.653 281.999,51.037 280.999,50.432L280.999,45.652C282.999,46.816 284.999,48.027 286.999,49.278L286.999,71.511C285.999,72.137 284.999,72.753 283.999,73.357Z" style="fill:black;fill-opacity:0.2;"/>
            </g>
            <g transform="matrix(1,0,0,1,0,-3)">
                <path d="M264.999,83.49L264.999,41.431C263.999,41.043 262.999,40.666 261.999,40.3L261.999,36.235C263.999,36.922 265.999,37.656 267.999,38.431L267.999,82.36C266.999,82.747 265.999,83.124 264.999,83.49Z" style="fill:black;fill-opacity:0.2;"/>
            </g>
            <g transform="matrix(1,0,0,1,0,-3)">
                <path d="M245.999,88.873L245.999,35.482C244.999,35.283 243.999,35.095 242.999,34.917L242.999,31.412C244.999,31.732 246.999,32.083 248.999,32.482L248.999,88.309C247.999,88.508 246.999,88.695 245.999,88.873Z" style="fill:black;fill-opacity:0.2;"/>
            </g>
            <g transform="matrix(1,0,0,1,0,-3)">
                <path d="M226.999,91.054L226.999,32.86C225.999,32.809 224.999,32.769 223.999,32.737L223.999,29.664C225.999,29.699 227.999,29.758 229.999,29.86L229.999,90.93C228.999,90.982 227.999,91.022 226.999,91.054Z" style="fill:black;fill-opacity:0.2;"/>
            </g>
            <g transform="matrix(1,0,0,1,0,-3)">
                <path d="M623,32.28L623,29.406C625,29.301 627,29.241 629,29.206L629,91.584C628,91.567 627,91.543 626,91.511L626,32.206C625,32.224 624,32.247 623,32.28Z" style="fill:black;fill-opacity:0.2;"/>
            </g>
            <g transform="matrix(1,0,0,1,0,-3)">
                <path d="M602,34.51L602,32.087C604,31.678 606,31.321 608,30.994L608,89.797C607,89.633 606,89.462 605,89.28L605,33.994C604,34.158 603,34.329 602,34.51Z" style="fill:black;fill-opacity:0.2;"/>
            </g>
            <g transform="matrix(1,0,0,1,0,-3)">
                <path d="M582,40.01L582,38.168C584,37.376 586,36.622 588,35.92L588,84.87C587,84.519 586,84.155 585,83.78L585,38.92C584,39.271 583,39.635 582,40.01Z" style="fill:black;fill-opacity:0.2;"/>
            </g>
            <g transform="matrix(1,0,0,1,0,-3)">
                <path d="M561,50.357L561,49.234C563,47.961 565,46.731 567,45.544L567,75.246C566,74.654 565,74.05 564,73.435L564,48.544C563,49.137 562,49.742 561,50.357Z" style="fill:black;fill-opacity:0.2;"/>
            </g>
            <g transform="matrix(1,0,0,1,0,-3)">
                <path d="M491,73.357L491,52.278C490,51.653 489,51.037 488,50.432L488,45.652C490,46.816 492,48.027 494,49.278L494,71.511C493,72.137 492,72.753 491,73.357Z" style="fill:black;fill-opacity:0.2;"/>
            </g>
            <g transform="matrix(1,0,0,1,0,-3)">
                <path d="M470,83.49L470,41.431C469,41.043 468,40.666 467,40.3L467,36.235C469,36.922 471,37.656 473,38.431L473,82.36C472,82.747 471,83.124 470,83.49Z" style="fill:black;fill-opacity:0.2;"/>
            </g>
            <g transform="matrix(1,0,0,1,0,-3)">
                <path d="M450,88.873L450,35.482C449,35.283 448,35.095 447,34.917L447,31.412C449,31.732 451,32.083 453,32.482L453,88.309C452,88.508 451,88.695 450,88.873Z" style="fill:black;fill-opacity:0.2;"/>
            </g>
            <g transform="matrix(1,0,0,1,0,-3)">
                <path d="M429,91.054L429,32.86C428,32.809 427,32.769 426,32.737L426,29.664C428,29.699 430,29.758 432,29.86L432,90.93C431,90.982 430,91.022 429,91.054Z" style="fill:black;fill-opacity:0.2;"/>
            </g>
            <g transform="matrix(1,0,0,1,0,-3)">
                <path d="M825,32.28L825,29.406C827,29.301 829,29.241 831,29.206L831,91.584C830,91.567 829,91.543 828,91.511L828,32.206C827,32.224 826,32.247 825,32.28Z" style="fill:black;fill-opacity:0.2;"/>
            </g>
            <g transform="matrix(1,0,0,1,0,-3)">
                <path d="M806,34.51L806,32.087C808,31.678 810,31.321 812,30.994L812,89.797C811,89.633 810,89.462 809,89.28L809,33.994C808,34.158 807,34.329 806,34.51Z" style="fill:black;fill-opacity:0.2;"/>
            </g>
            <g transform="matrix(1,0,0,1,0,-3)">
                <path d="M787,40.01L787,38.168C789,37.376 791,36.622 793,35.92L793,84.87C792,84.519 791,84.155 790,83.78L790,38.92C789,39.271 788,39.635 787,40.01Z" style="fill:black;fill-opacity:0.2;"/>
            </g>
            <g transform="matrix(1,0,0,1,0,-3)">
                <path d="M768,50.357L768,49.234C770,47.961 772,46.731 774,45.544L774,75.246C773,74.654 772,74.05 771,73.435L771,48.544C770,49.137 769,49.742 768,50.357Z" style="fill:black;fill-opacity:0.2;"/>
            </g>
            <g transform="matrix(1,0,0,1,0,-3)">
                <path d="M700,73.357L700,52.278C699,51.653 698,51.037 697,50.432L697,45.652C699,46.816 701,48.027 703,49.278L703,71.511C702,72.137 701,72.753 700,73.357Z" style="fill:black;fill-opacity:0.2;"/>
            </g>
            <g transform="matrix(1,0,0,1,0,-3)">
                <path d="M681,83.49L681,41.431C680,41.043 679,40.666 678,40.3L678,36.235C680,36.922 682,37.656 684,38.431L684,82.36C683,82.747 682,83.124 681,83.49Z" style="fill:black;fill-opacity:0.2;"/>
            </g>
            <g transform="matrix(1,0,0,1,0,-3)">
                <path d="M662,88.873L662,35.482C661,35.283 660,35.095 659,34.917L659,31.412C661,31.732 663,32.083 665,32.482L665,88.309C664,88.508 663,88.695 662,88.873Z" style="fill:black;fill-opacity:0.2;"/>
            </g>
            <g transform="matrix(1,0,0,1,0,-3)">
                <path d="M643,91.054L643,32.86C642,32.809 641,32.769 640,32.737L640,29.664C642,29.699 644,29.758 646,29.86L646,90.93C645,90.982 644,91.022 643,91.054Z" style="fill:black;fill-opacity:0.2;"/>
            </g>
        </g>
    </g>
</svg>
